<svg width="25" height="28" viewBox="0 0 25 28" fill="none" xmlns="http://www.w3.org/2000/svg">
<path d="M2.77778 27.7778H22.2222C23.7542 27.7778 25 26.5319 25 25V9.72222C25 9.35387 24.8537 9.0006 24.5932 8.74013C24.3327 8.47966 23.9795 8.33333 23.6111 8.33333H19.4444V6.94444C19.4444 3.11528 16.3292 0 12.5 0C8.67083 0 5.55556 3.11528 5.55556 6.94444V8.33333H1.38889C1.02053 8.33333 0.667263 8.47966 0.406796 8.74013C0.146329 9.0006 0 9.35387 0 9.72222V25C0 26.5319 1.24583 27.7778 2.77778 27.7778ZM8.33333 6.94444C8.33333 4.64722 10.2028 2.77778 12.5 2.77778C14.7972 2.77778 16.6667 4.64722 16.6667 6.94444V8.33333H8.33333V6.94444ZM2.77778 11.1111H5.55556V13.8889H8.33333V11.1111H16.6667V13.8889H19.4444V11.1111H22.2222L22.225 25H2.77778V11.1111Z" fill="#1E6F5C"/>
</svg>
