<svg width="40" height="40" viewBox="0 0 40 40" fill="none" xmlns="http://www.w3.org/2000/svg">
<path d="M20 13.4914C16.416 13.4914 13.4912 16.4162 13.4912 20.0002C13.4912 23.5842 16.416 26.509 20 26.509C23.584 26.509 26.5088 23.5842 26.5088 20.0002C26.5088 16.4162 23.584 13.4914 20 13.4914ZM39.5215 20.0002C39.5215 17.3049 39.5459 14.634 39.3945 11.9436C39.2432 8.81859 38.5303 6.04515 36.2451 3.76C33.9551 1.46996 31.1865 0.76195 28.0615 0.610583C25.3662 0.459216 22.6953 0.48363 20.0049 0.48363C17.3096 0.48363 14.6387 0.459216 11.9482 0.610583C8.82323 0.76195 6.04979 1.47484 3.76464 3.76C1.4746 6.05004 0.766589 8.81859 0.615222 11.9436C0.463855 14.6389 0.488269 17.3098 0.488269 20.0002C0.488269 22.6907 0.463855 25.3664 0.615222 28.0569C0.766589 31.1819 1.47948 33.9553 3.76464 36.2405C6.05468 38.5305 8.82323 39.2385 11.9482 39.3899C14.6435 39.5412 17.3144 39.5168 20.0049 39.5168C22.7002 39.5168 25.3711 39.5412 28.0615 39.3899C31.1865 39.2385 33.9599 38.5256 36.2451 36.2405C38.5351 33.9504 39.2432 31.1819 39.3945 28.0569C39.5508 25.3664 39.5215 22.6955 39.5215 20.0002ZM20 30.0149C14.458 30.0149 9.98534 25.5422 9.98534 20.0002C9.98534 14.4582 14.458 9.98558 20 9.98558C25.542 9.98558 30.0146 14.4582 30.0146 20.0002C30.0146 25.5422 25.542 30.0149 20 30.0149ZM30.4248 11.9143C29.1308 11.9143 28.0859 10.8694 28.0859 9.57543C28.0859 8.28148 29.1308 7.23656 30.4248 7.23656C31.7187 7.23656 32.7637 8.28148 32.7637 9.57543C32.764 9.88268 32.7038 10.187 32.5864 10.4709C32.469 10.7549 32.2967 11.0129 32.0795 11.2301C31.8622 11.4474 31.6042 11.6196 31.3203 11.737C31.0364 11.8544 30.732 11.9147 30.4248 11.9143Z" fill="#E6DD3B"/>
</svg>
