<svg width="42" height="34" viewBox="0 0 42 34" fill="none" xmlns="http://www.w3.org/2000/svg">
<path d="M3.68958 5.10837C6.6125 1.93962 11.0354 0.333374 16.8333 0.333374H18.9167V6.20629L17.2417 6.54171C14.3875 7.11254 12.4021 8.23546 11.3396 9.88337C10.7852 10.7711 10.4708 11.7876 10.4271 12.8334H16.8333C17.3859 12.8334 17.9158 13.0529 18.3065 13.4436C18.6972 13.8343 18.9167 14.3642 18.9167 14.9167V29.5C18.9167 31.798 17.0479 33.6667 14.75 33.6667H2.25C1.69746 33.6667 1.16756 33.4472 0.776858 33.0565C0.386157 32.6658 0.166664 32.1359 0.166664 31.5834V21.1667L0.172914 15.0855C0.154164 14.8542 -0.241669 9.37504 3.68958 5.10837ZM37.6667 33.6667H25.1667C24.6141 33.6667 24.0842 33.4472 23.6935 33.0565C23.3028 32.6658 23.0833 32.1359 23.0833 31.5834V21.1667L23.0896 15.0855C23.0708 14.8542 22.675 9.37504 26.6062 5.10837C29.5292 1.93962 33.9521 0.333374 39.75 0.333374H41.8333V6.20629L40.1583 6.54171C37.3042 7.11254 35.3187 8.23546 34.2562 9.88337C33.7019 10.7711 33.3874 11.7876 33.3437 12.8334H39.75C40.3025 12.8334 40.8324 13.0529 41.2231 13.4436C41.6138 13.8343 41.8333 14.3642 41.8333 14.9167V29.5C41.8333 31.798 39.9646 33.6667 37.6667 33.6667Z" fill="#ECE7B4"/>
</svg>
