<svg width="25" height="27" viewBox="0 0 25 27" fill="none" xmlns="http://www.w3.org/2000/svg">
<path d="M12.5 0C11.1265 0 9.78388 0.407284 8.64187 1.17035C7.49987 1.93341 6.60978 3.01799 6.08417 4.28692C5.55856 5.55585 5.42104 6.95215 5.68899 8.29924C5.95694 9.64633 6.61834 10.8837 7.58954 11.8549C8.56073 12.8261 9.79812 13.4875 11.1452 13.7555C12.4923 14.0234 13.8886 13.8859 15.1575 13.3603C16.4265 12.8347 17.511 11.9446 18.2741 10.8026C19.0372 9.66056 19.4444 8.31792 19.4444 6.94444C19.4444 5.10266 18.7128 3.33632 17.4105 2.03398C16.1081 0.731645 14.3418 0 12.5 0ZM12.5 11.1111C11.6759 11.1111 10.8703 10.8667 10.1851 10.4089C9.49992 9.95106 8.96587 9.30032 8.6505 8.53896C8.33514 7.7776 8.25262 6.93982 8.41339 6.13157C8.57417 5.32331 8.971 4.58088 9.55372 3.99817C10.1364 3.41545 10.8789 3.01861 11.6871 2.85784C12.4954 2.69707 13.3332 2.77958 14.0945 3.09495C14.8559 3.41031 15.5066 3.94436 15.9645 4.62957C16.4223 5.31477 16.6667 6.12035 16.6667 6.94444C16.6667 8.04951 16.2277 9.10932 15.4463 9.89072C14.6649 10.6721 13.6051 11.1111 12.5 11.1111ZM25 26.3889V25C25 22.4215 23.9757 19.9486 22.1524 18.1253C20.3292 16.3021 17.8563 15.2778 15.2778 15.2778H9.72222C7.14373 15.2778 4.67084 16.3021 2.84757 18.1253C1.0243 19.9486 0 22.4215 0 25V26.3889H2.77778V25C2.77778 23.1582 3.50942 21.3919 4.81176 20.0895C6.11409 18.7872 7.88044 18.0556 9.72222 18.0556H15.2778C17.1196 18.0556 18.8859 18.7872 20.1882 20.0895C21.4906 21.3919 22.2222 23.1582 22.2222 25V26.3889H25Z" fill="#1E6F5C"/>
</svg>
