<svg width="42" height="28" viewBox="0 0 42 28" fill="none" xmlns="http://www.w3.org/2000/svg">
<path d="M39.75 0.333295H0.166626V4.49996H4.95829L11.7916 23.25C12.2214 24.4657 13.0168 25.5187 14.0686 26.2647C15.1204 27.0106 16.3772 27.413 17.6666 27.4166H35.5833V23.25H17.6666C17.2385 23.2498 16.8208 23.1177 16.4704 22.8717C16.12 22.6256 15.8539 22.2776 15.7083 21.875L14.75 19.0833H34.0833C34.9875 19.082 35.8668 18.7866 36.5883 18.2416C37.3099 17.6967 37.8346 16.9318 38.0833 16.0625L41.8333 2.97913C41.918 2.70555 41.9454 2.41745 41.9137 2.13283C41.882 1.8482 41.7921 1.57315 41.6493 1.32486C41.5066 1.07657 41.3142 0.860374 41.0842 0.689768C40.8542 0.519162 40.5915 0.397811 40.3125 0.333295C40.1262 0.302964 39.9362 0.302964 39.75 0.333295ZM34.0208 14.9166H13.1875L9.39579 4.49996H36.9791L34.0208 14.9166Z" fill="white"/>
</svg>
