<svg width="41" height="40" viewBox="0 0 41 40" fill="none" xmlns="http://www.w3.org/2000/svg">
<path d="M37.9999 9.24969C31.9999 -0.000305772 19.7499 -2.7503 10.2499 2.99969C0.999937 8.74969 -2.00006 21.2497 3.99994 30.4997L4.49994 31.2497L2.49994 38.7497L9.99994 36.7497L10.7499 37.2497C13.9999 38.9997 17.4999 39.9997 20.9999 39.9997C24.7499 39.9997 28.4999 38.9997 31.7499 36.9997C40.9999 30.9997 43.7499 18.7497 37.9999 9.24969ZM32.7499 28.4997C31.7499 29.9997 30.4999 30.9997 28.7499 31.2497C27.7499 31.2497 26.4999 31.7497 21.4999 29.7497C17.2499 27.7497 13.7499 24.4997 11.2499 20.7497C9.74994 18.9997 8.99994 16.7497 8.74994 14.4997C8.74994 12.4997 9.49994 10.7497 10.7499 9.49969C11.2499 8.99969 11.7499 8.74969 12.2499 8.74969H13.4999C13.9999 8.74969 14.4999 8.74969 14.7499 9.74969C15.2499 10.9997 16.4999 13.9997 16.4999 14.2497C16.7499 14.4997 16.7499 14.9997 16.4999 15.2497C16.7499 15.7497 16.4999 16.2497 16.2499 16.4997C15.9999 16.7497 15.7499 17.2497 15.4999 17.4997C14.9999 17.7497 14.7499 18.2497 14.9999 18.7497C15.9999 20.2497 17.2499 21.7497 18.4999 22.9997C19.9999 24.2497 21.4999 25.2497 23.2499 25.9997C23.7499 26.2497 24.2499 26.2497 24.4999 25.7497C24.7499 25.2497 25.9999 23.9997 26.4999 23.4997C26.9999 22.9997 27.2499 22.9997 27.7499 23.2497L31.7499 25.2497C32.2499 25.4997 32.7499 25.7497 32.9999 25.9997C33.2499 26.7497 33.2499 27.7497 32.7499 28.4997Z" fill="#E6DD3B"/>
</svg>
